# AST/ASF file generated using VICON BodyLanguage
# -----------------------------------------------
:version 1.10
:name VICON
:units
  mass 1.0
  length 0.45
  angle deg
:documentation
   .ast/.asf automatically generated from VICON data using
   VICON BodyBuilder and BodyLanguage model FoxedUp or BRILLIANT.MOD
:root
   order TX TY TZ RX RY RZ
   axis XYZ
   position 0 0 0  
   orientation 0 0 0 
:bonedata
  begin
     id 1 
     name lhipjoint
     direction 0.722297 -0.617336 0.311742 
     length 2.6635 
     axis 0 0 0  XYZ
  end
  begin
     id 2 
     name lfemur
     direction 0.34202 -0.939693 0  
     length 7.39349  
     axis 0 0 20  XYZ
    dof rx ry rz
    limits (-160.0 20.0)
           (-70.0 70.0)
           (-60.0 70.0)
  end
  begin
     id 3 
     name ltibia
     direction 0.34202 -0.939693 0   
     length 7.36294   
     axis 0 0 20   XYZ
    dof rx
    limits (-10.0 170.0)
  end
  begin
     id 4 
     name lfoot
     direction 0.104879 -0.288152 0.951824   
     length 2.16981   
     axis -90 7.62852e-016 20   XYZ
    dof rx rz
    limits (-45.0 90.0)
           (-70.0 20.0)
  end
  begin
     id 5 
     name ltoes
     direction 1.53586e-011 -4.21895e-011 1   
     length 1.08218   
     axis -90 7.62852e-016 20   XYZ
    dof rx
    limits (-90.0 20.0)
  end
  begin
     id 6 
     name rhipjoint
     direction -0.75102 -0.589393 0.297631   
     length 2.78977  
     axis 0 0 0  XYZ 
  end
  begin
     id 7 
     name rfemur
     direction -0.34202 -0.939693 0   
     length 7.46076   
     axis 0 0 -20   XYZ
    dof rx ry rz
    limits (-160.0 20.0)
           (-70.0 70.0)
           (-70.0 60.0)
  end
  begin
     id 8 
     name rtibia
     direction -0.34202 -0.939693 0   
     length 7.31726   
     axis 0 0 -20   XYZ
    dof rx
    limits (-10.0 170.0)
 end
 begin
     id 9 
     name rfoot
     direction -0.107991 -0.296704 0.948844   
     length 2.09388  
     axis -90 -7.62852e-016 -20   XYZ
    dof rx rz
    limits (-45.0 90.0)
           (-20.0 70.0)
  end
  begin
     id 10 
     name rtoes
     direction -1.53559e-011 -4.21911e-011 1   
     length 1.04433   
     axis -90 -7.62852e-016 -20   XYZ
    dof rx
    limits (-90.0 20.0)
  end
  begin
     id 11 
     name lowerback
     direction 0.0165164 0.98272 0.184358   
     length 1.71896   
     axis 0 0 0   XYZ
    dof rx ry rz
    limits (-20.0 45.0)
           (-30.0 30.0)
           (-30.0 30.0)
  end
  begin
     id 12 
     name upperback
     direction -0.00887249 0.992297 0.123566   
     length 1.71504   
     axis 0 0 0   XYZ
    dof rx ry rz
    limits (-20.0 45.0)
           (-30.0 30.0)
           (-30.0 30.0)
  end
  begin
     id 13 
     name thorax
     direction -0.0157026 0.998908 0.0440032   
     length 1.77022   
     axis 0 0 0   XYZ
    dof rx ry rz
    limits (-20.0 45.0)
           (-30.0 30.0)
           (-30.0 30.0)
  end
  begin
     id 14 
     name lowerneck
     direction -0.0238856 0.998137 0.0561411   
     length 1.89341   
     axis 0 0 0   XYZ
    dof rx ry rz
    limits (-20.0 45.0)
           (-30.0 30.0)
           (-30.0 30.0)
  end
  begin
     id 15 
     name upperneck
     direction 0.0276574 0.952253 -0.304056   
     length 1.86999   
     axis 0 0 0   XYZ
    dof rx ry rz
    limits (-20.0 45.0)
           (-30.0 30.0)
           (-30.0 30.0)
  end
  begin
     id 16
     name head
     direction 0.00800083 0.994258 -0.106712  
     length 1.91492  
     axis 0 0 0   XYZ
    dof rx ry rz
    limits (-20.0 45.0)
           (-30.0 30.0)
           (-30.0 30.0)
  end
  begin
     id 17 
     name lclavicle
     direction 0.97203 0.225407 0.06595  
     length 3.34889  
     axis 0 0 0   XYZ
    dof ry rz
    limits (-20.0 10.0)
           (0.0 20.0)
  end
  begin
     id 18 
     name lhumerus
     direction 1 -4.48973e-011 2.20267e-027   
     length 4.85645   
     axis 180 -30 -90   XYZ
    dof rx ry rz
    limits (-60.0 90.0)
           (-90.0 90.0)
           (-90.0 90.0)
  end
  begin
     id 19
     name lradius
     direction 1 -4.4897e-011 4.60472e-027   
     length 2.79874   
     axis 180 -30 -90   XYZ
    dof rx
    limits (-10.0 170.0)
  end
  begin
     id 20
     name lwrist
     direction 1 -4.48952e-011 1.14928e-026   
     length 1.39937   
     axis -6.29373e-015 90 90   XYZ
    dof ry
    limits (-180.0 0.0)
 end
  begin
     id 21 
     name lhand
     direction 1 -4.48967e-011 2.29886e-026   
     length 0.573398   
     axis -1.46689e-014 90 90   XYZ
    dof rx rz
    limits (-90.0 90.0)
           (-45.0 45.0)
  end
  begin
     id 22 
     name lfingers
     direction 1 -4.48955e-011 4.59726e-026   
     length 0.462289   
     axis -2.93383e-014 90 90   XYZ
    dof rx
    limits (0.0 90.0)
  end
  begin
     id 23
     name lthumb
     direction 0.707107 -6.34866e-011 0.707107   
     length 0.663757   
     axis -90 45 5.69224e-014   XYZ
    dof rx rz
    limits (-45.0 45.0)
           (-45.0 45.0)
  end
  begin
     id 24 
     name rclavicle
     direction -0.981571 0.157346 0.108443   
     length 3.35257  
     axis 0 0 0   XYZ 
    dof ry rz
    limits (-10.0 20.0)
           (-20.0 0.0)
  end
  begin
     id 25 
     name rhumerus
     direction -1 -4.48967e-011 8.58308e-029  
     length 4.67018   
     axis 180 30 90   XYZ
    dof rx ry rz
    limits (-90.0 60.0)
           (-90.0 90.0)
           (-90.0 90.0)
  end
  begin
     id 26 
     name rradius
     direction -1 -4.48958e-011 4.52548e-027   
     length 2.65534   
     axis 180 30 90   XYZ
    dof rx
    limits (-10.0 170.0)
  end
  begin
     id 27 
     name rwrist
     direction -1 -4.48977e-011 1.14952e-026   
     length 1.32767   
     axis -6.29373e-015 -90 -90   XYZ
    dof ry
    limits (-180.0 0.0)
  end
  begin
     id 28
     name rhand
     direction -1 -4.48924e-011 2.29804e-026   
     length 0.594069   
     axis -1.46689e-014 -90 -90   XYZ
    dof rx rz
    limits (-90.0 90.0)
           (-45.0 45.0)
  end
  begin
     id 29
     name rfingers
     direction -1 -4.48998e-011 4.59888e-026   
     length 0.478954   
     axis -2.93383e-014 -90 -90   XYZ
    dof rx
    limits (0.0 90.0)
  end
  begin
     id 30
     name rthumb
     direction -0.707107 -6.34933e-011 0.707107   
     length 0.687685   
     axis -90 -45 -5.69224e-014   XYZ
    dof rx rz
    limits (-45.0 45.0)
           (-45.0 45.0)
  end
:hierarchy
  begin
    root lhipjoint rhipjoint lowerback
    lhipjoint lfemur
    lfemur ltibia
    ltibia lfoot
    lfoot ltoes
    rhipjoint rfemur
    rfemur rtibia
    rtibia rfoot
    rfoot rtoes
    lowerback upperback
    upperback thorax
    thorax lowerneck lclavicle rclavicle
    lowerneck upperneck
    upperneck head
    lclavicle lhumerus
    lhumerus lradius
    lradius lwrist
    lwrist lhand lthumb
    lhand lfingers
    rclavicle rhumerus
    rhumerus rradius
    rradius rwrist
    rwrist rhand rthumb
    rhand rfingers
  end

#!OML:ASF E:\pregnant2\Project 1\Capture day 1\Session 1\pregnant2.ASF
:FULLY-SPECIFIED
:DEGREES
97
root -4.2999 15.7429 20.1457 28.0546 6.0487 -0.766248
lowerback -20.2264 1.03156 2.61757
upperback -16.2046 1.06635 -0.624538
thorax -6.41066 0.305605 -1.996
lowerneck -15.7355 -3.89345 -5.20216
upperneck 35.6411 -5.44069 3.35128
head 15.3855 -2.54241 1.37227
rclavicle -5.98839e-015 2.38542e-014
rhumerus -22.0857 6.46045 -79.2372
rradius 115.511
rwrist 36.9945
rhand -5.81141 -8.40283
rfingers 7.12502
rthumb 20.0136 -37.3921
lclavicle -5.98839e-015 2.38542e-014
lhumerus -26.5332 -2.5573 79.7331
lradius 118.208
lwrist -28.0917
lhand -9.24337 15.5585
lfingers 7.12502
lthumb 16.7122 44.8592
rfemur -56.3263 -3.15799 20.3068
rtibia 61.9797
rfoot -27.6359 -14.1445
rtoes -14.1202
lfemur -57.1052 6.5483 -19.8356
ltibia 61.3338
lfoot -27.467 5.62428
ltoes -13.8028
98
root -4.29987 15.7436 20.1456 28.055 6.04551 -0.763794
lowerback -20.2239 1.03031 2.61951
upperback -16.2038 1.06443 -0.623406
thorax -6.41111 0.304469 -1.99616
lowerneck -15.7428 -3.89264 -5.19886
upperneck 35.6472 -5.43729 3.34278
head 15.3895 -2.54162 1.36862
rclavicle -9.11925e-015 -2.48481e-015
rhumerus -22.0711 6.46126 -79.2338
rradius 115.513
rwrist 36.9879
rhand -5.81123 -8.41031
rfingers 7.12502
rthumb 20.0138 -37.3996
lclavicle -9.11925e-015 -2.48481e-015
lhumerus -26.524 -2.56078 79.7367
lradius 118.204
lwrist -28.0943
lhand -9.24355 15.5592
lfingers 7.12502
lthumb 16.712 44.8599
rfemur -56.3235 -3.16377 20.307
rtibia 61.9699
rfoot -27.6264 -14.1404
rtoes -14.1258
lfemur -57.0987 6.54821 -19.8394
ltibia 61.3208
lfoot -27.4623 5.62783
ltoes -13.7994
99
root -4.29987 15.7442 20.1454 28.0562 6.04212 -0.761615
lowerback -20.2214 1.02901 2.62032
upperback -16.2033 1.06264 -0.621739
thorax -6.41188 0.303533 -1.99508
lowerneck -15.7505 -3.89204 -5.19641
upperneck 35.6524 -5.43429 3.33545
head 15.3933 -2.54096 1.36553
rclavicle -6.08778e-015 1.20762e-014
rhumerus -22.059 6.46025 -79.2301
rradius 115.516
rwrist 36.9816
rhand -5.81187 -8.41234
rfingers 7.12502
rthumb 20.0132 -37.4017
lclavicle -6.08778e-015 1.20762e-014
lhumerus -26.5143 -2.56242 79.7422
lradius 118.2
lwrist -28.0943
lhand -9.24316 15.5595
lfingers 7.12502
lthumb 16.7124 44.8601
rfemur -56.3225 -3.1692 20.3076
rtibia 61.961
rfoot -27.6182 -14.1356
rtoes -14.1297
lfemur -57.0939 6.54874 -19.8432
ltibia 61.309
lfoot -27.4576 5.63088
ltoes -13.7956
100
root -4.29987 15.7447 20.1452 28.0579 6.03788 -0.759415
lowerback -20.2182 1.02852 2.62002
upperback -16.2024 1.06206 -0.62085
thorax -6.41249 0.303282 -1.99406
lowerneck -15.76 -3.89242 -5.19269
upperneck 35.6556 -5.43321 3.32858
head 15.3966 -2.54083 1.36202
rclavicle 1.55797e-014 -1.88845e-015
rhumerus -22.0486 6.45613 -79.2265
rradius 115.519
rwrist 36.9752
rhand -5.81704 -8.41132
rfingers 7.12502
rthumb 20.0082 -37.4012
lclavicle 1.55797e-014 -1.88845e-015
lhumerus -26.5038 -2.56567 79.7489
lradius 118.196
lwrist -28.0921
lhand -9.2431 15.56
lfingers 7.12502
lthumb 16.7124 44.8606
rfemur -56.3225 -3.17328 20.3073
rtibia 61.9525
rfoot -27.6116 -14.1315
rtoes -14.1306
lfemur -57.0904 6.55001 -19.8474
ltibia 61.298
lfoot -27.4525 5.63372
ltoes -13.8004
101
root -4.29992 15.7453 20.145 28.0575 6.03347 -0.759904
lowerback -20.2146 1.02829 2.62052
upperback -16.2011 1.06176 -0.618527
thorax -6.41281 0.303193 -1.9919
lowerneck -15.7669 -3.89263 -5.18953
upperneck 35.6561 -5.43237 3.32345
head 15.3981 -2.54068 1.35932
rclavicle 9.96408e-015 -8.44835e-016
rhumerus -22.0413 6.45305 -79.2229
rradius 115.522
rwrist 36.9702
rhand -5.81885 -8.41083
rfingers 7.12502
rthumb 20.0065 -37.4009
lclavicle 9.96408e-015 -8.44835e-016
lhumerus -26.4959 -2.56704 79.757
lradius 118.193
lwrist -28.0909
lhand -9.23937 15.5596
lfingers 7.12502
lthumb 16.716 44.8599
rfemur -56.3197 -3.17577 20.3097
rtibia 61.9437
rfoot -27.6071 -14.1276
rtoes -14.1298
lfemur -57.0853 6.55336 -19.8484
ltibia 61.2879
lfoot -27.4477 5.63463
ltoes -13.8042
102
root -4.29993 15.7459 20.145 28.0533 6.02875 -0.761847
lowerback -20.2063 1.02791 2.62207
upperback -16.2 1.06124 -0.615295
thorax -6.41571 0.302907 -1.98944
lowerneck -15.7698 -3.89201 -5.18781
upperneck 35.6525 -5.43115 3.32185
head 15.3968 -2.54014 1.35848
rclavicle -1.12935e-014 2.68359e-015
rhumerus -22.0395 6.45205 -79.2202
rradius 115.527
rwrist 36.9658
rhand -5.82225 -8.41033
rfingers 7.12502
rthumb 20.0032 -37.4007
lclavicle -1.12935e-014 2.68359e-015
lhumerus -26.4903 -2.56681 79.765
lradius 118.189
lwrist -28.091
lhand -9.2378 15.56
lfingers 7.12502
lthumb 16.7175 44.8602
rfemur -56.3117 -3.17774 20.3133
rtibia 61.9341
rfoot -27.6036 -14.1246
rtoes -14.1343
lfemur -57.0754 6.55742 -19.8471
ltibia 61.2781
lfoot -27.4453 5.63391
ltoes -13.8063
103
root -4.29989 15.7465 20.145 28.0464 6.02339 -0.764491
lowerback -20.1954 1.02752 2.62408
upperback -16.199 1.06074 -0.611321
thorax -6.42009 0.302607 -1.98646
lowerneck -15.7697 -3.89083 -5.18901
upperneck 35.6474 -5.42974 3.32423
head 15.3944 -2.5394 1.35991
rclavicle -1.2834e-014 1.19271e-014
rhumerus -22.042 6.45224 -79.218
rradius 115.53
rwrist 36.9648
rhand -5.83046 -8.40859
rfingers 7.12502
rthumb 19.9953 -37.3998
lclavicle -1.2834e-014 1.19271e-014
lhumerus -26.4878 -2.56516 79.7742
lradius 118.186
lwrist -28.0945
lhand -9.2362 15.5612
lfingers 7.12502
lthumb 16.7191 44.8612
rfemur -56.3005 -3.17959 20.3173
rtibia 61.9242
rfoot -27.6025 -14.1195
rtoes -14.1388
lfemur -57.0611 6.56307 -19.8463
ltibia 61.2685
lfoot -27.4438 5.64045
ltoes -13.8331
104
root -4.29979 15.7472 20.1451 28.0384 6.01686 -0.767405
lowerback -20.1838 1.0264 2.62545
upperback -16.1978 1.05938 -0.606183
thorax -6.42462 0.301985 -1.982
lowerneck -15.7691 -3.88889 -5.18902
upperneck 35.6412 -5.42714 3.32557
head 15.3911 -2.53817 1.3609
rclavicle 1.5294e-014 -1.83876e-015
rhumerus -22.0435 6.45479 -79.217
rradius 115.532
rwrist 36.9648
rhand -5.83067 -8.40895
rfingers 7.12502
rthumb 19.9951 -37.4002
lclavicle 1.5294e-014 -1.83876e-015
lhumerus -26.4886 -2.55994 79.7829
lradius 118.184
lwrist -28.1001
lhand -9.23677 15.5625
lfingers 7.12502
lthumb 16.7185 44.8626
rfemur -56.2879 -3.17949 20.3205
rtibia 61.914
rfoot -27.5984 -14.1156
rtoes -14.1518
lfemur -57.0452 6.56908 -19.8451
ltibia 61.2586
lfoot -27.4422 5.64628
ltoes -13.8505
105
root -4.29964 15.7478 20.1452 28.0321 6.01003 -0.768933
lowerback -20.1727 1.02508 2.62567
upperback -16.1972 1.05791 -0.601417
thorax -6.42966 0.301376 -1.97731
lowerneck -15.7681 -3.88688 -5.18922
upperneck 35.635 -5.42483 3.32799
head 15.3878 -2.53692 1.36234
rclavicle -7.92654e-015 -3.08116e-015
rhumerus -22.0449 6.45639 -79.2166
rradius 115.531
rwrist 36.9645
rhand -5.82977 -8.40961
rfingers 7.12502
rthumb 19.996 -37.4008
lclavicle -7.92654e-015 -3.08116e-015
lhumerus -26.4902 -2.554 79.7927
lradius 118.183
lwrist -28.1074
lhand -9.2404 15.5628
lfingers 7.12502
lthumb 16.715 44.8632
rfemur -56.2779 -3.17959 20.3221
rtibia 61.9045
rfoot -27.5954 -14.1112
rtoes -14.1647
lfemur -57.0311 6.57418 -19.8463
ltibia 61.2486
lfoot -27.4394 5.65658
ltoes -13.876
106
root -4.29943 15.7484 20.1453 28.0279 6.00216 -0.768826
lowerback -20.1613 1.02482 2.62633
upperback -16.1975 1.05774 -0.599436
thorax -6.43581 0.301193 -1.97571
lowerneck -15.7653 -3.88435 -5.1877
upperneck 35.623 -5.4237 3.33454
head 15.3814 -2.5354 1.36499
rclavicle -1.53188e-014 -1.09332e-014
rhumerus -22.0452 6.45542 -79.2172
rradius 115.527
rwrist 36.9663
rhand -5.83285 -8.41359
rfingers 7.12502
rthumb 19.993 -37.405
lclavicle -1.53188e-014 -1.09332e-014
lhumerus -26.4929 -2.55039 79.8008
lradius 118.184
lwrist -28.1152
lhand -9.27891 15.5627
lfingers 7.12502
lthumb 16.6779 44.8662
rfemur -56.2706 -3.1797 20.3213
rtibia 61.8957
rfoot -27.5908 -14.1066
rtoes -14.1738
lfemur -57.0189 6.5779 -19.8493
ltibia 61.2383
lfoot -27.4355 5.66612
ltoes -13.8936
